<svg id="Layer_1" data-name="Layer 1" xmlns="http://www.w3.org/2000/svg" viewBox="0 0 717.78 239.43"><defs><style>.cls-1,.cls-2{fill:#fff;}.cls-1{stroke:#3a53a4;}.cls-3{fill:#37b44a;}.cls-4{fill:#00599a;}</style></defs><title>orbislogo</title><path class="cls-1" d="M505.14,541.94" transform="translate(-77.34 -327.48)"/><path class="cls-2" d="M360.09,416.13a70.72,70.72,0,0,1,5.19-27,69.89,69.89,0,0,1,15.3-22.91,67.48,67.48,0,0,1,48.79-20.48,66.69,66.69,0,0,1,26.3,5.34,70.86,70.86,0,0,1,37.6,38.14A71.15,71.15,0,0,1,478.17,466a69.08,69.08,0,0,1-22.49,15.43,68.14,68.14,0,0,1-52.75,0,68.89,68.89,0,0,1-22.35-15.19A70.12,70.12,0,0,1,360.09,416.13Zm18.49-.17a55.27,55.27,0,0,0,3.86,20.7A54.12,54.12,0,0,0,393.64,454a50.6,50.6,0,0,0,16.49,11.52,48,48,0,0,0,19.25,4,47.2,47.2,0,0,0,19.2-4A50,50,0,0,0,464.82,454a55.9,55.9,0,0,0,11.24-58.45,53.91,53.91,0,0,0-11.24-17.42,49.45,49.45,0,0,0-16.25-11.61,47.19,47.19,0,0,0-19.2-4A48.9,48.9,0,0,0,393.64,378a53.79,53.79,0,0,0-11.24,17.47A55.36,55.36,0,0,0,378.58,416Z" transform="translate(-77.34 -327.48)"/><path class="cls-2" d="M516,484.45V391h15.47v13.79a26.28,26.28,0,0,1,11.82-11.9q7.53-3.68,20.31-3.68H568v16.25h-2.57q-17.26,0-24.94,8.19t-7.67,26.68v44.12H516Z" transform="translate(-77.34 -327.48)"/><path class="cls-2" d="M577.81,348h16.92v89.58q0,14.68,8.29,23.79t21.54,9.1q13.44,0,21.83-9.1t8.39-24q0-14.21-8.63-23.17t-22.17-9a35.81,35.81,0,0,0-12,2.1,42.56,42.56,0,0,0-11.63,6.48v-18A47.73,47.73,0,0,1,612.39,391a55.16,55.16,0,0,1,13.3-1.57,44.34,44.34,0,0,1,13.25,2,43.36,43.36,0,0,1,11.91,5.76,47.8,47.8,0,0,1,15.58,17.44,48.92,48.92,0,0,1,5.38,22.86q0,21.15-13.3,34.87t-33.61,13.72a46.92,46.92,0,0,1-24.79-6.81A44.62,44.62,0,0,1,583,460.6a40.86,40.86,0,0,1-4-11.53q-1.19-6.28-1.19-18.86V348Z" transform="translate(-77.34 -327.48)"/><path class="cls-2" d="M687.39,364.36a10.14,10.14,0,1,1,20.28,0,10.22,10.22,0,0,1-2.9,7.39,9.6,9.6,0,0,1-7.19,3,9.71,9.71,0,0,1-7.19-3.05A10.1,10.1,0,0,1,687.39,364.36Zm1.79,120.09V391H706v93.45H689.18Z" transform="translate(-77.34 -327.48)"/><path class="cls-2" d="M724.34,468.43h40.39q6.09,0,9.56-2.38a7.55,7.55,0,0,0,3.47-6.58,8,8,0,0,0-2.61-6q-2.62-2.48-9.84-5.53l-16-6.48q-14.11-5.71-19.45-11.66t-5.34-15.19q0-11.42,8.1-17.51T755.89,391h34.53v15.58h-39q-4.75,0-7.42,2.1a7.09,7.09,0,0,0-2.66,5.91,7,7,0,0,0,2.37,5.15,26,26,0,0,0,7.89,4.57l16.83,6.86q15.72,6.48,21.21,12.49t5.48,15.25q0,13-9.62,19.26t-29.62,6.29H724.34v-16Z" transform="translate(-77.34 -327.48)"/><path class="cls-2" d="M371.71,545.21l1.73-4.66q4.1,2.71,6.61,2.7,4.54,0,4.54-3.81,0-2.73-4.39-4.69a36.18,36.18,0,0,1-4.55-2.35,10.14,10.14,0,0,1-2-1.82,7.21,7.21,0,0,1-1.29-2.17,7,7,0,0,1-.43-2.46,6.32,6.32,0,0,1,2.48-5.31,10.35,10.35,0,0,1,6.49-1.91,20.86,20.86,0,0,1,7.62,1.91l-1.39,4.55a9.36,9.36,0,0,0-5.86-2.34,5.1,5.1,0,0,0-3,.83,2.46,2.46,0,0,0-1.2,2.09q0,2.66,3,4l3.51,1.6a12.33,12.33,0,0,1,4.7,3.35,7.43,7.43,0,0,1,1.47,4.72,7.05,7.05,0,0,1-2.61,5.81,11.24,11.24,0,0,1-7.23,2.1A16.44,16.44,0,0,1,371.71,545.21Z" transform="translate(-77.34 -327.48)"/><path class="cls-2" d="M443.42,551.57a8.46,8.46,0,0,1-4,4.38,13.45,13.45,0,0,1-6.81,1.75v-4.4a9.38,9.38,0,0,0,5.24-1.43,4.13,4.13,0,0,0,2.18-3.49,13,13,0,0,0-.8-4.46q-0.8-2.2-2.06-5.44l-7.46-19.18h5l8.11,21.32,7.29-21.32h5Z" transform="translate(-77.34 -327.48)"/><path class="cls-2" d="M495.14,545.21l1.73-4.66q4.1,2.71,6.61,2.7,4.54,0,4.54-3.81,0-2.73-4.39-4.69a36.07,36.07,0,0,1-4.55-2.35,10.12,10.12,0,0,1-2-1.82,7.22,7.22,0,0,1-1.29-2.17,7,7,0,0,1-.43-2.46,6.33,6.33,0,0,1,2.48-5.31,10.36,10.36,0,0,1,6.49-1.91,20.86,20.86,0,0,1,7.62,1.91l-1.39,4.55a9.36,9.36,0,0,0-5.86-2.34,5.1,5.1,0,0,0-3,.83,2.46,2.46,0,0,0-1.2,2.09q0,2.66,3,4l3.51,1.6a12.34,12.34,0,0,1,4.7,3.35,7.43,7.43,0,0,1,1.47,4.72,7.05,7.05,0,0,1-2.61,5.81,11.24,11.24,0,0,1-7.23,2.1A16.44,16.44,0,0,1,495.14,545.21Z" transform="translate(-77.34 -327.48)"/><path class="cls-2" d="M558,523.14h-3.21v-3.85H558v-5.77l4.9-1.88v7.65h7.56v3.85H563v13.71q0,3.47,1.17,4.95a4.52,4.52,0,0,0,3.76,1.47,8.94,8.94,0,0,0,3.88-1l0.72,4.31a27,27,0,0,1-6.67.77A7.22,7.22,0,0,1,560.3,545a8.69,8.69,0,0,1-2.25-6.14V523.14Z" transform="translate(-77.34 -327.48)"/><path class="cls-2" d="M638.55,533.54H618.64q0,4.85,2.66,7.45a8.32,8.32,0,0,0,6,2.27,10.36,10.36,0,0,0,7-2.43l2.06,3.53a9.25,9.25,0,0,1-3.49,2,19,19,0,0,1-6.56,1.07,12.25,12.25,0,0,1-8.86-3.53q-4.06-3.89-4.06-10.47,0-6.83,4.16-11a12.08,12.08,0,0,1,8.8-3.69q5.91,0,9.27,3.33a11.36,11.36,0,0,1,3.25,8.48A11,11,0,0,1,638.55,533.54Zm-11.9-10.68a7.75,7.75,0,0,0-7.92,7.1h15.35a6.94,6.94,0,0,0-1.86-4.94A7.3,7.3,0,0,0,626.65,522.87Z" transform="translate(-77.34 -327.48)"/><path class="cls-2" d="M714,546.88V529.39q0-6.53-5.65-6.53a5.66,5.66,0,0,0-3.33,1.1,5.78,5.78,0,0,0-2.11,2.49v20.43H698V527.25a3.82,3.82,0,0,0-1.54-3.21,6.51,6.51,0,0,0-4.06-1.17,5.65,5.65,0,0,0-3.13,1.13,6.92,6.92,0,0,0-2.36,2.49v20.39h-4.9V519.29h3.2l1.62,3.16a8.61,8.61,0,0,1,7.09-3.71q5.93,0,8.31,3.67a6.33,6.33,0,0,1,3.07-2.62,10.8,10.8,0,0,1,4.62-1.05,8.58,8.58,0,0,1,6.63,2.54q2.35,2.54,2.35,7.13v18.47H714Z" transform="translate(-77.34 -327.48)"/><path class="cls-2" d="M762.1,545.21l1.73-4.66q4.1,2.71,6.6,2.7,4.54,0,4.54-3.81,0-2.73-4.39-4.69a36.54,36.54,0,0,1-4.55-2.35,10.13,10.13,0,0,1-2-1.82,7.22,7.22,0,0,1-1.29-2.17,7,7,0,0,1-.42-2.46,6.32,6.32,0,0,1,2.48-5.31,10.34,10.34,0,0,1,6.48-1.91,20.86,20.86,0,0,1,7.62,1.91l-1.39,4.55a9.36,9.36,0,0,0-5.86-2.34,5.09,5.09,0,0,0-3,.83,2.45,2.45,0,0,0-1.2,2.09q0,2.66,3,4l3.51,1.6a12.33,12.33,0,0,1,4.69,3.35,7.41,7.41,0,0,1,1.47,4.72,7.05,7.05,0,0,1-2.61,5.81,11.23,11.23,0,0,1-7.23,2.1A16.44,16.44,0,0,1,762.1,545.21Z" transform="translate(-77.34 -327.48)"/><path class="cls-3" d="M316.89,446.2c-0.09,6.71-.09,7-0.4,10.77-0.7,6.72-.73,7-1.39,10.82-1.33,6.69-1.39,7-2.43,10.83l-0.83,2.89c-0.26.86-.56,1.71-0.88,2.58-6.64,17.5-27.48,37.19-58.07,52.39-43.14,21.44-91.32,26.85-115.64,14.31-0.82-.42-1.61-0.86-2.38-1.32l-2.55-1.59c-5.68-3.83-5.9-4-9.07-6.44A136.33,136.33,0,0,1,111.6,531c-4.62-4.91-4.79-5.1-7.2-8l-2-2.57c0.57,0.7,1.19,1.39,1.85,2.06,22.46,22.94,86.45,18.77,142.93-9.3,43.83-21.78,70.25-51.56,69.38-74.53C316.71,441.08,316.87,444,316.89,446.2Z" transform="translate(-77.34 -327.48)"/><path class="cls-2" d="M316.55,438.65c0.87,23-25.56,52.74-69.38,74.53-56.47,28.07-120.47,32.24-142.93,9.3-0.66-.67-1.28-1.36-1.85-2.06l0-.05-0.57-.73,0.07-.06c0.39,0.46.81,0.91,1.24,1.35,22.57,23,86.85,18.85,143.59-9.34,43.61-21.68,70.07-51.24,69.72-74.22h0.09c0,0.2,0,.4,0,0.59S316.54,438.41,316.55,438.65Z" transform="translate(-77.34 -327.48)"/><path class="cls-3" d="M316.52,437.95c0,0.23,0,.47,0,0.7C316.54,438.41,316.52,438.17,316.52,437.95Z" transform="translate(-77.34 -327.48)"/><path class="cls-4" d="M316.39,437.36c0.35,23-26.1,52.54-69.72,74.22-56.74,28.2-121,32.38-143.59,9.34-0.43-.45-0.85-0.89-1.24-1.35a25.54,25.54,0,0,1-1.6-2L98,514.37c-3.7-5.74-3.78-5.85-5.59-9.12-3.19-6.06-3.24-6.18-4.76-9.6-0.71-1.7-1.67-4-2.34-5.67-2.33-6.48-2.37-6.61-3.4-10.19-1.73-6.62-1.76-6.74-2.47-10.39-1.13-6.73-1.15-6.86-1.53-10.56-0.14-1.75-.34-4.08-0.43-5.83a26.05,26.05,0,0,0,7.72,17.35C107.5,493.13,171,489,227,461.15c53.65-26.67,81-65.41,63.68-88.62,1,1.21,2.05,2.59,2.86,3.72,3.92,5.6,4,5.7,5.94,8.9,3.41,5.93,3.48,6,5.12,9.4,2.89,6.23,2.94,6.36,4.29,9.85,2.33,6.48,2.37,6.6,3.4,10.19,1.73,6.63,1.76,6.75,2.47,10.4,0.49,2.94,1.08,6.87,1.45,9.84C316.32,435.65,316.37,436.5,316.39,437.36Z" transform="translate(-77.34 -327.48)"/><path class="cls-2" d="M310.95,484.09l0.07,0-0.41,1.19,0,0.1c-6.38,17.4-27.06,37-57.53,52.2C210,559,161.79,564.22,138,551.32l-0.82-.46,0-.06c24.31,12.53,72.5,7.13,115.64-14.31C283.47,521.29,304.31,501.6,310.95,484.09Z" transform="translate(-77.34 -327.48)"/><path class="cls-4" d="M310.6,485.31l0.41-1.19C310.88,484.52,310.75,484.91,310.6,485.31Z" transform="translate(-77.34 -327.48)"/><path class="cls-4" d="M310.57,485.4c-0.47,1.35-1,2.86-1.44,4-2.59,6.4-2.75,6.78-4.71,10.79A121.29,121.29,0,0,1,286.34,527a125.42,125.42,0,0,1-9.69,9.69c-4.81,4.12-5.32,4.55-9.07,7.33-5.19,3.62-5.4,3.77-8.66,5.75-5.4,3.11-5.5,3.17-8.53,4.68-1.91.91-4.47,2.1-6.4,2.95-2.57,1-7.91,3.2-8.36,3.2-5.66,1.8-5.66,1.8-8.59,2.57-5.71,1.35-5.93,1.41-9.17,2-5.87.91-6.35,1-10.18,1.33-6,.4-6.89.47-11.72,0.45a130,130,0,0,1-14-1,126.72,126.72,0,0,1-17.46-3.57c-6.44-2-7.11-2.19-11.62-3.94-6.23-2.63-6.74-2.85-10.69-4.86-1.23-.67-2.79-1.5-4.13-2.24C161.79,564.22,210,559,253,537.6,283.51,522.45,304.19,502.8,310.57,485.4Z" transform="translate(-77.34 -327.48)"/><path class="cls-2" d="M290.71,372.53c17.33,23.22-10,62-63.68,88.62-56,27.85-119.52,32-141.81,9.23A26.05,26.05,0,0,1,77.49,453h0.09a26,26,0,0,0,7.52,15.32c22.17,22.63,85.31,18.52,141-9.18C279,432.88,306.2,394.8,289.9,371.65l0.08-.05c0.14,0.18.29,0.36,0.42,0.54Z" transform="translate(-77.34 -327.48)"/><path class="cls-3" d="M282.33,363.07l0.3,0.3c1.26,1.34,3,3.13,4.19,4.51l1.51,1.74c0.56,0.67,1.09,1.34,1.57,2,16.3,23.16-10.91,61.23-63.78,87.51-55.72,27.7-118.86,31.8-141,9.18A26,26,0,0,1,77.58,453c-0.1-.84-0.16-1.69-0.19-2.54l0-2.29c0.09-6.71.09-7,.4-10.76,0.7-6.72.73-7,1.39-10.82,1.33-6.7,1.39-7,2.43-10.84,0.67-2.24,1.55-5,2.37-7.51-2.85,9.32-1.36,17.89,5.21,24.6,18.9,19.3,72.76,15.8,120.3-7.83s70.72-58.41,51.85-77.72l16.5,11.48,0,0c2.09,1.87,2.76,2.52,4.55,4.35Z" transform="translate(-77.34 -327.48)"/><path class="cls-3" d="M277.82,358.75l0,0a90,90,0,0,0-16.51-11.5h0a31.33,31.33,0,0,0-6.85-5.21l2,1.09c5.8,3.46,6.15,3.68,9.51,6,5.5,4,5.71,4.19,8.73,6.75Z" transform="translate(-77.34 -327.48)"/><path class="cls-3" d="M277.79,358.79l-16.5-11.48h0A90,90,0,0,1,277.79,358.79Z" transform="translate(-77.34 -327.48)"/><path class="cls-2" d="M261.3,347.31C280.17,366.61,257,401.4,209.45,425s-101.4,27.13-120.3,7.83c-6.57-6.7-8.06-15.27-5.21-24.6l0-.09,0.16,0c-2.13,8.53-.47,16.36,5.61,22.56,18.65,19,71.78,15.58,118.67-7.72s69.78-57.63,51.13-76.67h0a30.68,30.68,0,0,0-6.29-4.86l0-.05c0.39,0.21.77,0.41,1.15,0.63a31.33,31.33,0,0,1,6.85,5.21h0Z" transform="translate(-77.34 -327.48)"/><path class="cls-4" d="M259.53,346.37c18.66,19-4.24,53.37-51.13,76.67s-100,26.76-118.67,7.72c-6.08-6.2-7.74-14-5.61-22.56a36.39,36.39,0,0,1,1.47-4.55c1.21-2.88,2.89-6.69,4.22-9.51a121.72,121.72,0,0,1,18.08-26.76,126.65,126.65,0,0,1,9.69-9.69c4.81-4.12,5.32-4.54,9.07-7.33,5.19-3.62,5.4-3.77,8.66-5.75,5.4-3.11,5.5-3.17,8.53-4.67,1.91-.91,4.47-2.11,6.4-3,2.57-1,7.91-3.2,8.36-3.2,5.67-1.8,5.67-1.8,8.59-2.56,5.7-1.36,5.93-1.41,9.17-2,5.87-.91,6.35-1,10.18-1.33,6-.4,6.89-0.47,11.72-0.45a132,132,0,0,1,14,1A125.83,125.83,0,0,1,229.77,332,128.7,128.7,0,0,1,246.09,338l4.72,2.23c0.84,0.42,1.65.86,2.43,1.32a30.68,30.68,0,0,1,6.29,4.86h0Z" transform="translate(-77.34 -327.48)"/></svg>
